{"title":"Knight And Day (2010) Hindi Dubbed@Mastitorrents","uid":5841556,"size":694365650,"categoryP":"video","categoryS":"movies","magnet":"?xt=urn:btih:9ebf921b19161f380e77e1739501a124ee677edb&amp;dn=Knight+And+Day+%282010%29+Hindi+Dubbed%40Mastitorrents&amp;tr=udp%3A%2F%2Ftracker.openbittorrent.com%3A80&amp;tr=udp%3A%2F%2Fopen.demonii.com%3A1337&amp;tr=udp%3A%2F%2Ftracker.coppersurfer.tk%3A6969&amp;tr=udp%3A%2F%2Fexodus.desync.com%3A6969","seeders":0,"leechers":0,"uploader":"amanrulz","files":3,"time":1284982113,"description":"mastitorrents.com\n &lt;a href=&quot;\nhttp://mastitorrents.com/forums/index.php&quot; rel=&quot;nofollow&quot; target=&quot;_NEW&quot;&gt;\nhttp://mastitorrents.com/forums/index.php&lt;/a&gt;\n\nGeneral\nComplete name                    :Knight And Day.2010.in hindi.mkv\nFormat                           : Matroska\nFile size                        : 658 MiB\nDuration                         : 1h 42mn\nOverall bit rate                 : 898 Kbps\nEncoded date                     : UTC 2010-09-19 13:27:57\nWriting application              : mkvmerge v4.2.0 ('No Talking') built on Jul 28 2010 18:38:23\nWriting library                  : libebml v1.0.0 + libmatroska v1.0.0\nVideo\nID                               : 1\nFormat                           : MPEG-4 Visual\nFormat profile                   : AdvancedSimple@L5\nFormat settings, BVOP            : Yes\nFormat settings, QPel            : No\nFormat settings, GMC             : No warppoints\nFormat settings, Matrix          : Default (H.263)\nCodec ID                         : XVID\nCodec ID/Hint                    : XviD\nDuration                         : 1h 42mn\nBit rate                         : 816 Kbps\nWidth                            : 640 pixels\nHeight                           : 272 pixels\nDisplay aspect ratio             : 2.35:1\nFrame rate                       : 25.000 fps\nResolution                       : 24 bits\nColorimetry                      : 4:2:0\nScan type                        : Progressive\nBits/(Pixel*Frame)               : 0.187\nStream size                      : 598 MiB (91%)\nWriting library                  : XviD 57\nAudio\nID                               : 2\nFormat                           : MPEG Audio\nFormat version                   : Version 2\nFormat profile                   : Layer 3\nCodec ID                         : A_MPEG/L3\nCodec ID/Hint                    : MP3\nDuration                         : 1h 42mn\nBit rate mode                    : Constant\nBit rate                         : 64.0 Kbps\nChannel(s)                       : 2 channels\nSampling rate                    : 22.05 KHz\nResolution                       : 16 bits\nStream size                      : 46.9 MiB (7%)\nWriting library                  : LAME3.98.2\nLanguage                         : Hindi\n","torrent":{"xt":"urn:btih:9ebf921b19161f380e77e1739501a124ee677edb","amp;dn":"Knight+And+Day+%282010%29+Hindi+Dubbed%40Mastitorrents","amp;tr":["udp%3A%2F%2Ftracker.openbittorrent.com%3A80","udp%3A%2F%2Fopen.demonii.com%3A1337","udp%3A%2F%2Ftracker.coppersurfer.tk%3A6969","udp%3A%2F%2Fexodus.desync.com%3A6969"],"infoHash":"9ebf921b19161f380e77e1739501a124ee677edb","infoHashBuffer":{"type":"Buffer","data":[158,191,146,27,25,22,31,56,14,119,225,115,149,1,161,36,238,103,126,219]},"announce":[],"urlList":[]}}